<?xml version="1.0" standalone="no"?>
<!DOCTYPE svg PUBLIC "-//W3C//DTD SVG 20010904//EN"
 "http://www.w3.org/TR/2001/REC-SVG-20010904/DTD/svg10.dtd">
<svg version="1.0" xmlns="http://www.w3.org/2000/svg"
 width="512.000000pt" height="512.000000pt" viewBox="0 0 512.000000 512.000000"
 preserveAspectRatio="xMidYMid meet">

<g transform="translate(0.000000,512.000000) scale(0.100000,-0.100000)"
fill="#000000" stroke="none">
<path d="M2490 3104 c-207 -38 -543 -179 -770 -322 -95 -60 -97 -61 -200 -72
-336 -36 -771 -115 -848 -154 -27 -14 -65 -41 -83 -61 -19 -20 -63 -52 -99
-71 -88 -49 -198 -139 -206 -169 -4 -17 6 -55 31 -117 l36 -91 -55 -56 c-31
-31 -56 -63 -56 -72 0 -37 16 -39 342 -39 180 0 318 -4 318 -9 0 -5 21 -32 46
-60 l46 -51 -368 -2 c-337 -3 -368 -4 -378 -20 -8 -13 -8 -23 0 -35 11 -17
132 -18 2314 -18 2182 0 2303 1 2314 18 8 12 8 22 0 35 -10 16 -44 17 -398 22
l-387 5 31 30 c18 17 43 49 57 72 28 49 4 44 332 73 124 11 230 25 237 31 22
18 94 135 94 153 0 9 -16 26 -35 37 -40 24 -40 22 -19 145 13 74 13 100 4 128
-11 36 -93 128 -140 159 l-24 17 27 28 c24 25 27 36 27 94 l0 67 31 3 c39 4
59 30 43 56 -10 15 -32 17 -214 17 -182 0 -204 -2 -214 -17 -14 -23 2 -50 35
-58 22 -5 20 -8 -20 -23 l-44 -18 -146 55 c-542 203 -1358 346 -1661 290z
m-285 -181 c-312 -167 -382 -203 -399 -203 -12 0 -16 4 -10 9 15 15 242 132
334 173 87 38 128 50 75 21z m730 -19 c66 -10 123 -20 127 -23 4 -4 2 -40 -5
-81 l-13 -75 -312 -3 -312 -2 6 39 c3 21 1 47 -5 59 -10 19 -5 23 82 56 50 19
101 37 112 39 47 11 209 6 320 -9z m425 -74 c69 -15 177 -45 240 -67 l115 -38
-289 -3 c-159 -1 -290 -1 -292 1 -2 1 2 35 8 75 l12 73 40 -6 c23 -4 97 -19
166 -35z m-1552 -310 c-19 -38 -48 -55 -48 -27 0 6 -7 24 -14 40 l-15 27 48 0
48 0 -19 -40z m960 20 c-10 -16 -10 -24 0 -40 12 -20 10 -20 -438 -20 -268 0
-450 4 -450 9 0 5 12 23 26 40 l26 31 424 0 c422 0 424 0 412 -20z m342 -20
l0 -40 -65 0 c-63 0 -65 1 -53 20 10 16 10 24 0 40 -12 19 -10 20 53 20 l65 0
0 -40z m484 18 c8 -13 8 -23 0 -35 -10 -16 -33 -18 -208 -21 l-196 -2 0 40 0
40 196 -2 c175 -3 198 -5 208 -20z m-1926 -30 c21 -21 13 -28 -28 -28 -22 0
-40 4 -40 8 0 14 23 32 40 32 9 0 21 -5 28 -12z m2977 -18 c4 -6 -12 -10 -42
-9 -43 1 -45 2 -18 9 44 11 53 11 60 0z m-3445 -220 c0 -24 -5 -40 -12 -40 -6
0 -26 -11 -44 -25 -32 -25 -35 -25 -70 -10 l-37 15 29 31 c32 34 90 68 117 69
13 0 17 -8 17 -40z m148 21 c20 -11 50 -33 66 -50 l29 -31 -37 -15 c-36 -15
-38 -15 -67 10 -17 14 -37 25 -45 25 -10 0 -14 12 -14 40 0 47 11 50 68 21z
m2452 -21 c0 -24 -5 -40 -12 -40 -6 0 -26 -11 -44 -25 -32 -25 -35 -25 -70
-10 l-37 15 29 31 c32 34 90 68 117 69 13 0 17 -8 17 -40z m148 21 c20 -11 50
-33 66 -50 l29 -31 -37 -15 c-36 -15 -38 -15 -67 10 -17 14 -37 25 -45 25 -10
0 -14 12 -14 40 0 47 11 50 68 21z m-2899 -172 c26 -9 31 -16 31 -42 0 -18 7
-45 16 -62 14 -27 13 -31 -4 -54 -10 -14 -23 -26 -30 -29 -26 -8 -75 141 -59
182 8 19 6 19 46 5z m425 -50 c-1 -53 -34 -139 -53 -139 -5 0 -19 11 -30 25
-18 24 -18 29 -5 60 8 19 14 48 14 64 0 23 6 32 28 39 41 16 47 9 46 -49z
m2175 50 c26 -9 31 -16 31 -42 0 -18 7 -45 16 -62 14 -27 13 -31 -4 -54 -10
-14 -23 -26 -30 -29 -26 -8 -75 141 -59 182 8 19 6 19 46 5z m425 -50 c-1 -53
-34 -139 -53 -139 -5 0 -19 11 -30 25 -18 24 -18 29 -5 60 8 19 14 48 14 64 0
23 6 32 28 39 41 16 47 9 46 -49z m-2742 -169 c18 -22 18 -25 3 -36 -39 -28
-151 -28 -190 0 -15 11 -15 14 3 36 18 23 27 25 92 24 64 0 75 -3 92 -24z
m2600 0 c18 -22 18 -25 3 -36 -39 -28 -151 -28 -190 0 -15 11 -15 14 3 36 18
23 27 25 92 24 64 0 75 -3 92 -24z m-432 -29 c0 -5 21 -32 46 -60 l46 -51
-1052 0 -1052 0 46 51 c25 28 46 55 46 60 0 5 404 9 960 9 556 0 960 -4 960
-9z"/>
</g>
</svg>
